<?xml version="1.0" encoding="UTF-8" standalone="no"?>
<svg
   xmlns:dc="http://purl.org/dc/elements/1.1/"
   xmlns:cc="http://creativecommons.org/ns#"
   xmlns:rdf="http://www.w3.org/1999/02/22-rdf-syntax-ns#"
   xmlns:svg="http://www.w3.org/2000/svg"
   xmlns="http://www.w3.org/2000/svg"
   xmlns:sodipodi="http://sodipodi.sourceforge.net/DTD/sodipodi-0.dtd"
   xmlns:inkscape="http://www.inkscape.org/namespaces/inkscape"
   width="75.187477cm"
   height="59.567493cm"
   viewBox="7 -1611 1493.5389 1174.3306"
   id="svg18720"
   version="1.1"
   inkscape:version="0.91 r13725"
   sodipodi:docname="read-write.svg">
  <metadata
     id="metadata19330">
    <rdf:RDF>
      <cc:Work
         rdf:about="">
        <dc:format>image/svg+xml</dc:format>
        <dc:type
           rdf:resource="http://purl.org/dc/dcmitype/StillImage" />
        <dc:title></dc:title>
      </cc:Work>
    </rdf:RDF>
  </metadata>
  <defs
     id="defs19328" />
  <sodipodi:namedview
     pagecolor="#ffffff"
     bordercolor="#666666"
     borderopacity="1"
     objecttolerance="10"
     gridtolerance="10"
     guidetolerance="10"
     inkscape:pageopacity="0"
     inkscape:pageshadow="2"
     inkscape:window-width="1885"
     inkscape:window-height="1056"
     id="namedview19326"
     showgrid="false"
     inkscape:zoom="0.26706715"
     inkscape:cx="1082.7812"
     inkscape:cy="889.3598"
     inkscape:window-x="35"
     inkscape:window-y="24"
     inkscape:window-maximized="1"
     inkscape:current-layer="svg18720"
     fit-margin-top="2"
     fit-margin-left="2"
     fit-margin-right="2"
     fit-margin-bottom="2" />
  <g
     id="g18724"
     transform="translate(-153.21,34.990196)">
    <ellipse
       id="ellipse18726"
       ry="79.276604"
       rx="134.923"
       cy="-1528.8"
       cx="523.771"
       style="fill:#facc78" />
    <ellipse
       id="ellipse18728"
       ry="79.276604"
       rx="134.923"
       cy="-1528.8"
       cx="523.771"
       style="fill:none;fill-opacity:0;stroke:#d88d04;stroke-width:5.5999999" />
    <text
       id="text18730"
       y="-1561.65"
       x="523.771"
       style="font-style:normal;font-weight:normal;font-size:33.86669922px;font-family:Arial;text-anchor:middle;fill:#000000"
       font-size="33.8667">
      <tspan
         id="tspan18732"
         y="-1561.65"
         x="523.771">Receive</tspan>
      <tspan
         id="tspan18734"
         y="-1519.3199"
         x="523.771">read/write</tspan>
      <tspan
         id="tspan18736"
         y="-1476.98"
         x="523.771">request</tspan>
    </text>
  </g>
  <g
     id="g18738"
     transform="translate(-153.21,34.990196)">
    <polygon
       id="polygon18740"
       points="523.773,-1403.8 697.777,-1297.1 523.773,-1190.4 349.769,-1297.1 "
       style="fill:#facc78" />
    <polygon
       id="polygon18742"
       points="523.773,-1403.8 697.777,-1297.1 523.773,-1190.4 349.769,-1297.1 "
       style="fill:none;fill-opacity:0;stroke:#d88d04;stroke-width:5.5999999" />
    <text
       id="text18744"
       y="-1308.78"
       x="523.77301"
       style="font-style:normal;font-weight:normal;font-size:33.86669922px;font-family:Arial;text-anchor:middle;fill:#000000"
       font-size="33.8667">
      <tspan
         id="tspan18746"
         y="-1308.78"
         x="523.77301">Valid</tspan>
      <tspan
         id="tspan18748"
         y="-1266.45"
         x="523.77301">request ?</tspan>
    </text>
  </g>
  <text
     id="text18750"
     y="-1262.1097"
     x="370.56302"
     style="font-style:normal;font-weight:normal;font-size:12.80000019px;font-family:sans-serif;text-anchor:start;fill:#000000"
     font-size="12.8">
    <tspan
       id="tspan18752"
       y="-1262.1097"
       x="370.56302" />
  </text>
  <g
     id="g18754"
     transform="translate(-153.21,34.990196)">
    <rect
       id="rect18756"
       height="104.519"
       width="278.53699"
       y="-1138.12"
       x="384.48901"
       style="fill:#facc78" />
    <path
       inkscape:connector-curvature="0"
       id="path18758"
       d="m 384.489,-1138.12 a 40,40 0 0 0 -40,40 l 40,0 z"
       style="fill:#facc78" />
    <path
       inkscape:connector-curvature="0"
       id="path18760"
       d="m 703.026,-1098.12 a 40,40 0 0 0 -40,-40 l 0,40 z"
       style="fill:#facc78" />
    <rect
       id="rect18762"
       height="24.5193"
       width="358.53699"
       y="-1098.12"
       x="344.48901"
       style="fill:#facc78" />
    <path
       inkscape:connector-curvature="0"
       id="path18764"
       d="m 344.489,-1073.6 a 40,40 0 0 0 40,40 l 0,-40 z"
       style="fill:#facc78" />
    <path
       inkscape:connector-curvature="0"
       id="path18766"
       d="m 663.026,-1033.6 a 40,40 0 0 0 40,-40 l -40,0 z"
       style="fill:#facc78" />
    <line
       id="line18768"
       y2="-1138.12"
       x2="663.026"
       y1="-1138.12"
       x1="384.48901"
       style="fill:none;fill-opacity:0;stroke:#d88d04;stroke-width:5.5999999" />
    <line
       id="line18770"
       y2="-1033.6"
       x2="663.026"
       y1="-1033.6"
       x1="384.48901"
       style="fill:none;fill-opacity:0;stroke:#d88d04;stroke-width:5.5999999" />
    <path
       inkscape:connector-curvature="0"
       id="path18772"
       d="m 384.489,-1138.12 a 40,40 0 0 0 -40,40"
       style="fill:none;fill-opacity:0;stroke:#d88d04;stroke-width:5.5999999" />
    <path
       inkscape:connector-curvature="0"
       id="path18774"
       d="m 703.026,-1098.12 a 40,40 0 0 0 -40,-40"
       style="fill:none;fill-opacity:0;stroke:#d88d04;stroke-width:5.5999999" />
    <line
       id="line18776"
       y2="-1073.6"
       x2="344.48901"
       y1="-1098.12"
       x1="344.48901"
       style="fill:none;fill-opacity:0;stroke:#d88d04;stroke-width:5.5999999" />
    <line
       id="line18778"
       y2="-1073.6"
       x2="703.026"
       y1="-1098.12"
       x1="703.026"
       style="fill:none;fill-opacity:0;stroke:#d88d04;stroke-width:5.5999999" />
    <path
       inkscape:connector-curvature="0"
       id="path18780"
       d="m 344.489,-1073.6 a 40,40 0 0 0 40,40"
       style="fill:none;fill-opacity:0;stroke:#d88d04;stroke-width:5.5999999" />
    <path
       inkscape:connector-curvature="0"
       id="path18782"
       d="m 663.026,-1033.6 a 40,40 0 0 0 40,-40"
       style="fill:none;fill-opacity:0;stroke:#d88d04;stroke-width:5.5999999" />
    <text
       id="text18784"
       y="-1097.54"
       x="523.75702"
       style="font-style:normal;font-weight:normal;font-size:33.86669922px;font-family:Arial;text-anchor:middle;fill:#000000"
       font-size="33.8667">
      <tspan
         id="tspan18786"
         y="-1097.54"
         x="523.75702">Add request into</tspan>
      <tspan
         id="tspan18788"
         y="-1055.21"
         x="523.75702">VirtQueue</tspan>
    </text>
  </g>
  <g
     id="g18790"
     transform="translate(-153.21,34.990196)">
    <rect
       id="rect18792"
       height="104.519"
       width="278.53699"
       y="-958.896"
       x="384.48901"
       style="fill:#ffc0cb" />
    <path
       inkscape:connector-curvature="0"
       id="path18794"
       d="m 384.489,-958.896 a 40,40 0 0 0 -40,40 l 40,0 z"
       style="fill:#ffc0cb" />
    <path
       inkscape:connector-curvature="0"
       id="path18796"
       d="m 703.026,-918.896 a 40,40 0 0 0 -40,-40 l 0,40 z"
       style="fill:#ffc0cb" />
    <rect
       id="rect18798"
       height="24.5193"
       width="358.53699"
       y="-918.896"
       x="344.48901"
       style="fill:#ffc0cb" />
    <path
       inkscape:connector-curvature="0"
       id="path18800"
       d="m 344.489,-894.377 a 40,40 0 0 0 40,40 l 0,-40 z"
       style="fill:#ffc0cb" />
    <path
       inkscape:connector-curvature="0"
       id="path18802"
       d="m 663.026,-854.377 a 40,40 0 0 0 40,-40 l -40,0 z"
       style="fill:#ffc0cb" />
    <line
       id="line18804"
       y2="-958.896"
       x2="663.026"
       y1="-958.896"
       x1="384.48901"
       style="fill:none;fill-opacity:0;stroke:#f04361;stroke-width:5.5999999" />
    <line
       id="line18806"
       y2="-854.37701"
       x2="663.026"
       y1="-854.37701"
       x1="384.48901"
       style="fill:none;fill-opacity:0;stroke:#f04361;stroke-width:5.5999999" />
    <path
       inkscape:connector-curvature="0"
       id="path18808"
       d="m 384.489,-958.896 a 40,40 0 0 0 -40,40"
       style="fill:none;fill-opacity:0;stroke:#f04361;stroke-width:5.5999999" />
    <path
       inkscape:connector-curvature="0"
       id="path18810"
       d="m 703.026,-918.896 a 40,40 0 0 0 -40,-40"
       style="fill:none;fill-opacity:0;stroke:#f04361;stroke-width:5.5999999" />
    <line
       id="line18812"
       y2="-894.37701"
       x2="344.48901"
       y1="-918.896"
       x1="344.48901"
       style="fill:none;fill-opacity:0;stroke:#f04361;stroke-width:5.5999999" />
    <line
       id="line18814"
       y2="-894.37701"
       x2="703.026"
       y1="-918.896"
       x1="703.026"
       style="fill:none;fill-opacity:0;stroke:#f04361;stroke-width:5.5999999" />
    <path
       inkscape:connector-curvature="0"
       id="path18816"
       d="m 344.489,-894.377 a 40,40 0 0 0 40,40"
       style="fill:none;fill-opacity:0;stroke:#f04361;stroke-width:5.5999999" />
    <path
       inkscape:connector-curvature="0"
       id="path18818"
       d="m 663.026,-854.377 a 40,40 0 0 0 40,-40"
       style="fill:none;fill-opacity:0;stroke:#f04361;stroke-width:5.5999999" />
    <text
       id="text18820"
       y="-918.32001"
       x="523.75702"
       style="font-style:normal;font-weight:normal;font-size:33.86669922px;font-family:Arial;text-anchor:middle;fill:#000000"
       font-size="33.8667">
      <tspan
         id="tspan18822"
         y="-918.32001"
         x="523.75702">Pull request</tspan>
      <tspan
         id="tspan18824"
         y="-875.98602"
         x="523.75702">from VirtQueue</tspan>
    </text>
  </g>
  <g
     id="g18826"
     transform="translate(-153.21,34.990196)">
    <rect
       id="rect18828"
       height="104.519"
       width="254.614"
       y="-758.46399"
       x="865.95398"
       style="fill:#ffc0cb" />
    <path
       inkscape:connector-curvature="0"
       id="path18830"
       d="m 865.954,-758.464 a 40,40 0 0 0 -40,40 l 40,0 z"
       style="fill:#ffc0cb" />
    <path
       inkscape:connector-curvature="0"
       id="path18832"
       d="m 1160.57,-718.464 a 40,40 0 0 0 -40,-40 l 0,40 z"
       style="fill:#ffc0cb" />
    <rect
       id="rect18834"
       height="24.5193"
       width="334.61401"
       y="-718.46399"
       x="825.95398"
       style="fill:#ffc0cb" />
    <path
       inkscape:connector-curvature="0"
       id="path18836"
       d="m 825.954,-693.945 a 40,40 0 0 0 40,40 l 0,-40 z"
       style="fill:#ffc0cb" />
    <path
       inkscape:connector-curvature="0"
       id="path18838"
       d="m 1120.57,-653.945 a 40,40 0 0 0 40,-40 l -40,0 z"
       style="fill:#ffc0cb" />
    <line
       id="line18840"
       y2="-758.46399"
       x2="1120.5699"
       y1="-758.46399"
       x1="865.95398"
       style="fill:none;fill-opacity:0;stroke:#f04361;stroke-width:5.5999999" />
    <line
       id="line18842"
       y2="-653.94501"
       x2="1120.5699"
       y1="-653.94501"
       x1="865.95398"
       style="fill:none;fill-opacity:0;stroke:#f04361;stroke-width:5.5999999" />
    <path
       inkscape:connector-curvature="0"
       id="path18844"
       d="m 865.954,-758.464 a 40,40 0 0 0 -40,40"
       style="fill:none;fill-opacity:0;stroke:#f04361;stroke-width:5.5999999" />
    <path
       inkscape:connector-curvature="0"
       id="path18846"
       d="m 1160.57,-718.464 a 40,40 0 0 0 -40,-40"
       style="fill:none;fill-opacity:0;stroke:#f04361;stroke-width:5.5999999" />
    <line
       id="line18848"
       y2="-693.94501"
       x2="825.95398"
       y1="-718.46399"
       x1="825.95398"
       style="fill:none;fill-opacity:0;stroke:#f04361;stroke-width:5.5999999" />
    <line
       id="line18850"
       y2="-693.94501"
       x2="1160.5699"
       y1="-718.46399"
       x1="1160.5699"
       style="fill:none;fill-opacity:0;stroke:#f04361;stroke-width:5.5999999" />
    <path
       inkscape:connector-curvature="0"
       id="path18852"
       d="m 825.954,-693.945 a 40,40 0 0 0 40,40"
       style="fill:none;fill-opacity:0;stroke:#f04361;stroke-width:5.5999999" />
    <path
       inkscape:connector-curvature="0"
       id="path18854"
       d="m 1120.57,-653.945 a 40,40 0 0 0 40,-40"
       style="fill:none;fill-opacity:0;stroke:#f04361;stroke-width:5.5999999" />
    <text
       id="text18856"
       y="-717.888"
       x="993.26099"
       style="font-style:normal;font-weight:normal;font-size:33.86669922px;font-family:Arial;text-anchor:middle;fill:#000000"
       font-size="33.8667">
      <tspan
         id="tspan18858"
         y="-717.888"
         x="993.26099">Divide request</tspan>
      <tspan
         id="tspan18860"
         y="-675.55499"
         x="993.26099">into small requests</tspan>
    </text>
  </g>
  <g
     id="g18862"
     transform="translate(-153.21,34.990196)">
    <polygon
       id="polygon18864"
       points="523.774,-819.976 735.179,-706.205 523.774,-592.433 312.369,-706.205 "
       style="fill:#ffc0cb" />
    <polygon
       id="polygon18866"
       points="523.774,-819.976 735.179,-706.205 523.774,-592.433 312.369,-706.205 "
       style="fill:none;fill-opacity:0;stroke:#f04361;stroke-width:5.5999999" />
    <text
       id="text18868"
       y="-733.57098"
       x="523.77399"
       style="font-style:normal;font-weight:normal;font-size:28.22220039px;font-family:Arial;text-anchor:middle;fill:#000000"
       font-size="28.2222">
      <tspan
         id="tspan18870"
         y="-733.57098"
         x="523.77399">Request crosses</tspan>
      <tspan
         id="tspan18872"
         y="-698.29303"
         x="523.77399">eSSD block</tspan>
      <tspan
         id="tspan18874"
         y="-663.01599"
         x="523.77399">boundary ?</tspan>
    </text>
  </g>
  <g
     id="g18876"
     transform="translate(-153.21,34.990196)">
    <rect
       id="rect18878"
       height="104.519"
       width="232.5"
       y="-614.39203"
       x="877.01099"
       style="fill:#ffc0cb" />
    <path
       inkscape:connector-curvature="0"
       id="path18880"
       d="m 877.011,-614.392 a 40,40 0 0 0 -40,40 l 40,0 z"
       style="fill:#ffc0cb" />
    <path
       inkscape:connector-curvature="0"
       id="path18882"
       d="m 1149.51,-574.392 a 40,40 0 0 0 -40,-40 l 0,40 z"
       style="fill:#ffc0cb" />
    <rect
       id="rect18884"
       height="24.5193"
       width="312.5"
       y="-574.39203"
       x="837.01099"
       style="fill:#ffc0cb" />
    <path
       inkscape:connector-curvature="0"
       id="path18886"
       d="m 837.011,-549.873 a 40,40 0 0 0 40,40 l 0,-40 z"
       style="fill:#ffc0cb" />
    <path
       inkscape:connector-curvature="0"
       id="path18888"
       d="m 1109.51,-509.873 a 40,40 0 0 0 40,-40 l -40,0 z"
       style="fill:#ffc0cb" />
    <line
       id="line18890"
       y2="-614.39203"
       x2="1109.51"
       y1="-614.39203"
       x1="877.01099"
       style="fill:none;fill-opacity:0;stroke:#f04361;stroke-width:5.5999999" />
    <line
       id="line18892"
       y2="-509.87299"
       x2="1109.51"
       y1="-509.87299"
       x1="877.01099"
       style="fill:none;fill-opacity:0;stroke:#f04361;stroke-width:5.5999999" />
    <path
       inkscape:connector-curvature="0"
       id="path18894"
       d="m 877.011,-614.392 a 40,40 0 0 0 -40,40"
       style="fill:none;fill-opacity:0;stroke:#f04361;stroke-width:5.5999999" />
    <path
       inkscape:connector-curvature="0"
       id="path18896"
       d="m 1149.51,-574.392 a 40,40 0 0 0 -40,-40"
       style="fill:none;fill-opacity:0;stroke:#f04361;stroke-width:5.5999999" />
    <line
       id="line18898"
       y2="-549.87299"
       x2="837.01099"
       y1="-574.39203"
       x1="837.01099"
       style="fill:none;fill-opacity:0;stroke:#f04361;stroke-width:5.5999999" />
    <line
       id="line18900"
       y2="-549.87299"
       x2="1149.51"
       y1="-574.39203"
       x1="1149.51"
       style="fill:none;fill-opacity:0;stroke:#f04361;stroke-width:5.5999999" />
    <path
       inkscape:connector-curvature="0"
       id="path18902"
       d="m 837.011,-549.873 a 40,40 0 0 0 40,40"
       style="fill:none;fill-opacity:0;stroke:#f04361;stroke-width:5.5999999" />
    <path
       inkscape:connector-curvature="0"
       id="path18904"
       d="m 1109.51,-509.873 a 40,40 0 0 0 40,-40"
       style="fill:none;fill-opacity:0;stroke:#f04361;stroke-width:5.5999999" />
    <text
       id="text18906"
       y="-573.81598"
       x="993.26099"
       style="font-style:normal;font-weight:normal;font-size:33.86669922px;font-family:Arial;text-anchor:middle;fill:#000000"
       font-size="33.8667">
      <tspan
         id="tspan18908"
         y="-573.81598"
         x="993.26099">Find logical to</tspan>
      <tspan
         id="tspan18910"
         y="-531.48199"
         x="993.26099">physical mapping</tspan>
    </text>
  </g>
  <g
     id="g18912"
     transform="translate(-153.21,34.990196)">
    <rect
       id="rect18914"
       height="104.519"
       width="278.53699"
       y="-758.46399"
       x="1247.6801"
       style="fill:#ffc0cb" />
    <path
       inkscape:connector-curvature="0"
       id="path18916"
       d="m 1247.68,-758.464 a 40,40 0 0 0 -40,40 l 40,0 z"
       style="fill:#ffc0cb" />
    <path
       inkscape:connector-curvature="0"
       id="path18918"
       d="m 1566.22,-718.464 a 40,40 0 0 0 -40,-40 l 0,40 z"
       style="fill:#ffc0cb" />
    <rect
       id="rect18920"
       height="24.5193"
       width="358.53699"
       y="-718.46399"
       x="1207.6801"
       style="fill:#ffc0cb" />
    <path
       inkscape:connector-curvature="0"
       id="path18922"
       d="m 1207.68,-693.945 a 40,40 0 0 0 40,40 l 0,-40 z"
       style="fill:#ffc0cb" />
    <path
       inkscape:connector-curvature="0"
       id="path18924"
       d="m 1526.22,-653.945 a 40,40 0 0 0 40,-40 l -40,0 z"
       style="fill:#ffc0cb" />
    <line
       id="line18926"
       y2="-758.46399"
       x2="1526.22"
       y1="-758.46399"
       x1="1247.6801"
       style="fill:none;fill-opacity:0;stroke:#f04361;stroke-width:5.5999999" />
    <line
       id="line18928"
       y2="-653.94501"
       x2="1526.22"
       y1="-653.94501"
       x1="1247.6801"
       style="fill:none;fill-opacity:0;stroke:#f04361;stroke-width:5.5999999" />
    <path
       inkscape:connector-curvature="0"
       id="path18930"
       d="m 1247.68,-758.464 a 40,40 0 0 0 -40,40"
       style="fill:none;fill-opacity:0;stroke:#f04361;stroke-width:5.5999999" />
    <path
       inkscape:connector-curvature="0"
       id="path18932"
       d="m 1566.22,-718.464 a 40,40 0 0 0 -40,-40"
       style="fill:none;fill-opacity:0;stroke:#f04361;stroke-width:5.5999999" />
    <line
       id="line18934"
       y2="-693.94501"
       x2="1207.6801"
       y1="-718.46399"
       x1="1207.6801"
       style="fill:none;fill-opacity:0;stroke:#f04361;stroke-width:5.5999999" />
    <line
       id="line18936"
       y2="-693.94501"
       x2="1566.22"
       y1="-718.46399"
       x1="1566.22"
       style="fill:none;fill-opacity:0;stroke:#f04361;stroke-width:5.5999999" />
    <path
       inkscape:connector-curvature="0"
       id="path18938"
       d="m 1207.68,-693.945 a 40,40 0 0 0 40,40"
       style="fill:none;fill-opacity:0;stroke:#f04361;stroke-width:5.5999999" />
    <path
       inkscape:connector-curvature="0"
       id="path18940"
       d="m 1526.22,-653.945 a 40,40 0 0 0 40,-40"
       style="fill:none;fill-opacity:0;stroke:#f04361;stroke-width:5.5999999" />
    <text
       id="text18942"
       y="-717.888"
       x="1386.95"
       style="font-style:normal;font-weight:normal;font-size:33.86669922px;font-family:Arial;text-anchor:middle;fill:#000000"
       font-size="33.8667">
      <tspan
         id="tspan18944"
         y="-717.888"
         x="1386.95">Receive response</tspan>
      <tspan
         id="tspan18946"
         y="-675.55499"
         x="1386.95">for all requests</tspan>
    </text>
  </g>
  <g
     id="g18948"
     transform="translate(-153.21,34.990196)">
    <rect
       id="rect18950"
       height="104.519"
       width="290.25"
       y="-958.896"
       x="1241.83"
       style="fill:#ffc0cb" />
    <path
       inkscape:connector-curvature="0"
       id="path18952"
       d="m 1241.83,-958.896 a 40,40 0 0 0 -40,40 l 40,0 z"
       style="fill:#ffc0cb" />
    <path
       inkscape:connector-curvature="0"
       id="path18954"
       d="m 1572.08,-918.896 a 40,40 0 0 0 -40,-40 l 0,40 z"
       style="fill:#ffc0cb" />
    <rect
       id="rect18956"
       height="24.5193"
       width="370.25"
       y="-918.896"
       x="1201.83"
       style="fill:#ffc0cb" />
    <path
       inkscape:connector-curvature="0"
       id="path18958"
       d="m 1201.83,-894.377 a 40,40 0 0 0 40,40 l 0,-40 z"
       style="fill:#ffc0cb" />
    <path
       inkscape:connector-curvature="0"
       id="path18960"
       d="m 1532.08,-854.377 a 40,40 0 0 0 40,-40 l -40,0 z"
       style="fill:#ffc0cb" />
    <line
       id="line18962"
       y2="-958.896"
       x2="1532.08"
       y1="-958.896"
       x1="1241.83"
       style="fill:none;fill-opacity:0;stroke:#f04361;stroke-width:5.5999999" />
    <line
       id="line18964"
       y2="-854.37701"
       x2="1532.08"
       y1="-854.37701"
       x1="1241.83"
       style="fill:none;fill-opacity:0;stroke:#f04361;stroke-width:5.5999999" />
    <path
       inkscape:connector-curvature="0"
       id="path18966"
       d="m 1241.83,-958.896 a 40,40 0 0 0 -40,40"
       style="fill:none;fill-opacity:0;stroke:#f04361;stroke-width:5.5999999" />
    <path
       inkscape:connector-curvature="0"
       id="path18968"
       d="m 1572.08,-918.896 a 40,40 0 0 0 -40,-40"
       style="fill:none;fill-opacity:0;stroke:#f04361;stroke-width:5.5999999" />
    <line
       id="line18970"
       y2="-894.37701"
       x2="1201.83"
       y1="-918.896"
       x1="1201.83"
       style="fill:none;fill-opacity:0;stroke:#f04361;stroke-width:5.5999999" />
    <line
       id="line18972"
       y2="-894.37701"
       x2="1572.08"
       y1="-918.896"
       x1="1572.08"
       style="fill:none;fill-opacity:0;stroke:#f04361;stroke-width:5.5999999" />
    <path
       inkscape:connector-curvature="0"
       id="path18974"
       d="m 1201.83,-894.377 a 40,40 0 0 0 40,40"
       style="fill:none;fill-opacity:0;stroke:#f04361;stroke-width:5.5999999" />
    <path
       inkscape:connector-curvature="0"
       id="path18976"
       d="m 1532.08,-854.377 a 40,40 0 0 0 40,-40"
       style="fill:none;fill-opacity:0;stroke:#f04361;stroke-width:5.5999999" />
    <text
       id="text18978"
       y="-918.32001"
       x="1386.95"
       style="font-style:normal;font-weight:normal;font-size:33.86669922px;font-family:Arial;text-anchor:middle;fill:#000000"
       font-size="33.8667">
      <tspan
         id="tspan18980"
         y="-918.32001"
         x="1386.95">Push response</tspan>
      <tspan
         id="tspan18982"
         y="-875.98602"
         x="1386.95">to VirtQueue</tspan>
    </text>
  </g>
  <g
     id="g18984"
     transform="translate(-153.21,34.990196)">
    <rect
       id="rect18986"
       height="104.519"
       width="278.53699"
       y="-1138.12"
       x="1247.6801"
       style="fill:#facc78" />
    <path
       inkscape:connector-curvature="0"
       id="path18988"
       d="m 1247.68,-1138.12 a 40,40 0 0 0 -40,40 l 40,0 z"
       style="fill:#facc78" />
    <path
       inkscape:connector-curvature="0"
       id="path18990"
       d="m 1566.22,-1098.12 a 40,40 0 0 0 -40,-40 l 0,40 z"
       style="fill:#facc78" />
    <rect
       id="rect18992"
       height="24.5193"
       width="358.53699"
       y="-1098.12"
       x="1207.6801"
       style="fill:#facc78" />
    <path
       inkscape:connector-curvature="0"
       id="path18994"
       d="m 1207.68,-1073.6 a 40,40 0 0 0 40,40 l 0,-40 z"
       style="fill:#facc78" />
    <path
       inkscape:connector-curvature="0"
       id="path18996"
       d="m 1526.22,-1033.6 a 40,40 0 0 0 40,-40 l -40,0 z"
       style="fill:#facc78" />
    <line
       id="line18998"
       y2="-1138.12"
       x2="1526.22"
       y1="-1138.12"
       x1="1247.6801"
       style="fill:none;fill-opacity:0;stroke:#d88d04;stroke-width:5.5999999" />
    <line
       id="line19000"
       y2="-1033.6"
       x2="1526.22"
       y1="-1033.6"
       x1="1247.6801"
       style="fill:none;fill-opacity:0;stroke:#d88d04;stroke-width:5.5999999" />
    <path
       inkscape:connector-curvature="0"
       id="path19002"
       d="m 1247.68,-1138.12 a 40,40 0 0 0 -40,40"
       style="fill:none;fill-opacity:0;stroke:#d88d04;stroke-width:5.5999999" />
    <path
       inkscape:connector-curvature="0"
       id="path19004"
       d="m 1566.22,-1098.12 a 40,40 0 0 0 -40,-40"
       style="fill:none;fill-opacity:0;stroke:#d88d04;stroke-width:5.5999999" />
    <line
       id="line19006"
       y2="-1073.6"
       x2="1207.6801"
       y1="-1098.12"
       x1="1207.6801"
       style="fill:none;fill-opacity:0;stroke:#d88d04;stroke-width:5.5999999" />
    <line
       id="line19008"
       y2="-1073.6"
       x2="1566.22"
       y1="-1098.12"
       x1="1566.22"
       style="fill:none;fill-opacity:0;stroke:#d88d04;stroke-width:5.5999999" />
    <path
       inkscape:connector-curvature="0"
       id="path19010"
       d="m 1207.68,-1073.6 a 40,40 0 0 0 40,40"
       style="fill:none;fill-opacity:0;stroke:#d88d04;stroke-width:5.5999999" />
    <path
       inkscape:connector-curvature="0"
       id="path19012"
       d="m 1526.22,-1033.6 a 40,40 0 0 0 40,-40"
       style="fill:none;fill-opacity:0;stroke:#d88d04;stroke-width:5.5999999" />
    <text
       id="text19014"
       y="-1097.54"
       x="1386.95"
       style="font-style:normal;font-weight:normal;font-size:33.86669922px;font-family:Arial;text-anchor:middle;fill:#000000"
       font-size="33.8667">
      <tspan
         id="tspan19016"
         y="-1097.54"
         x="1386.95">Pull response from</tspan>
      <tspan
         id="tspan19018"
         y="-1055.21"
         x="1386.95">VirtQueue</tspan>
    </text>
  </g>
  <g
     id="g19020"
     transform="translate(-153.21,34.990196)">
    <ellipse
       id="ellipse19022"
       ry="65.042"
       rx="98.425301"
       cy="-1302.0699"
       cx="1386.95"
       style="fill:#facc78" />
    <ellipse
       id="ellipse19024"
       ry="65.042"
       rx="98.425301"
       cy="-1302.0699"
       cx="1386.95"
       style="fill:none;fill-opacity:0;stroke:#d88d04;stroke-width:5.5999999" />
    <text
       id="text19026"
       y="-1292.59"
       x="1386.95"
       style="font-style:normal;font-weight:normal;font-size:33.86669922px;font-family:Arial;text-anchor:middle;fill:#000000"
       font-size="33.8667">
      <tspan
         id="tspan19028"
         y="-1292.59"
         x="1386.95">Done</tspan>
    </text>
  </g>
  <g
     id="g19030"
     transform="translate(-153.21,34.990196)">
    <line
       id="line19032"
       y2="-1420.36"
       x2="523.77197"
       y1="-1446.75"
       x1="523.77197"
       style="fill:none;fill-opacity:0;stroke:#000000;stroke-width:5.5999999" />
    <polygon
       id="polygon19034"
       points="523.772,-1412.86 518.772,-1422.86 523.772,-1420.36 528.772,-1422.86 "
       style="fill:#000000" />
    <polygon
       id="polygon19036"
       points="523.772,-1412.86 518.772,-1422.86 523.772,-1420.36 528.772,-1422.86 "
       style="fill:none;fill-opacity:0;stroke:#000000;stroke-width:5.5999999" />
  </g>
  <g
     id="g19038"
     transform="translate(-153.21,34.990196)">
    <line
       id="line19040"
       y2="-1154.6801"
       x2="523.76202"
       y1="-1187.61"
       x1="523.76501"
       style="fill:none;fill-opacity:0;stroke:#000000;stroke-width:5.5999999" />
    <polygon
       id="polygon19042"
       points="523.762,-1147.18 518.762,-1157.18 523.762,-1154.68 528.762,-1157.18 "
       style="fill:#000000" />
    <polygon
       id="polygon19044"
       points="523.762,-1147.18 518.762,-1157.18 523.762,-1154.68 528.762,-1157.18 "
       style="fill:none;fill-opacity:0;stroke:#000000;stroke-width:5.5999999" />
  </g>
  <g
     id="g19046"
     transform="translate(-153.21,34.990196)">
    <line
       id="line19048"
       y2="-975.45203"
       x2="523.75702"
       y1="-1030.8"
       x1="523.75702"
       style="fill:none;fill-opacity:0;stroke:#000000;stroke-width:5.5999999" />
    <polygon
       id="polygon19050"
       points="523.757,-967.952 518.757,-977.952 523.757,-975.452 528.757,-977.952 "
       style="fill:#000000" />
    <polygon
       id="polygon19052"
       points="523.757,-967.952 518.757,-977.952 523.757,-975.452 528.757,-977.952 "
       style="fill:none;fill-opacity:0;stroke:#000000;stroke-width:5.5999999" />
  </g>
  <g
     id="g19054"
     transform="translate(-153.21,34.990196)">
    <line
       id="line19056"
       y2="-836.53302"
       x2="523.763"
       y1="-851.57397"
       x1="523.76202"
       style="fill:none;fill-opacity:0;stroke:#000000;stroke-width:5.5999999" />
    <polygon
       id="polygon19058"
       points="523.764,-829.033 518.763,-839.033 523.763,-836.533 528.763,-839.033 "
       style="fill:#000000" />
    <polygon
       id="polygon19060"
       points="523.764,-829.033 518.763,-839.033 523.763,-836.533 528.763,-839.033 "
       style="fill:none;fill-opacity:0;stroke:#000000;stroke-width:5.5999999" />
  </g>
  <g
     id="g19062"
     transform="translate(-153.21,34.990196)">
    <line
       id="line19064"
       y2="-706.20502"
       x2="809.38898"
       y1="-706.20502"
       x1="737.979"
       style="fill:none;fill-opacity:0;stroke:#000000;stroke-width:5.5999999" />
    <polygon
       id="polygon19066"
       points="816.889,-706.205 806.889,-701.205 809.389,-706.205 806.889,-711.205 "
       style="fill:#000000" />
    <polygon
       id="polygon19068"
       points="816.889,-706.205 806.889,-701.205 809.389,-706.205 806.889,-711.205 "
       style="fill:none;fill-opacity:0;stroke:#000000;stroke-width:5.5999999" />
  </g>
  <g
     id="g19070"
     transform="translate(-153.21,34.990196)">
    <line
       id="line19072"
       y2="-630.94897"
       x2="993.26099"
       y1="-651.14899"
       x1="993.26099"
       style="fill:none;fill-opacity:0;stroke:#000000;stroke-width:5.5999999" />
    <polygon
       id="polygon19074"
       points="993.261,-623.449 988.261,-633.449 993.261,-630.949 998.261,-633.449 "
       style="fill:#000000" />
    <polygon
       id="polygon19076"
       points="993.261,-623.449 988.261,-633.449 993.261,-630.949 998.261,-633.449 "
       style="fill:none;fill-opacity:0;stroke:#000000;stroke-width:5.5999999" />
  </g>
  <g
     id="g19078"
     transform="translate(-153.21,34.990196)">
    <line
       id="line19080"
       y2="-562.13202"
       x2="1191.12"
       y1="-562.13202"
       x1="1152.3199"
       style="fill:none;fill-opacity:0;stroke:#000000;stroke-width:5.5999999" />
    <polygon
       id="polygon19082"
       points="1198.62,-562.132 1188.62,-557.132 1191.12,-562.132 1188.62,-567.132 "
       style="fill:#000000" />
    <polygon
       id="polygon19084"
       points="1198.62,-562.132 1188.62,-557.132 1191.12,-562.132 1188.62,-567.132 "
       style="fill:none;fill-opacity:0;stroke:#000000;stroke-width:5.5999999" />
  </g>
  <g
     id="g19086"
     transform="translate(-153.21,34.990196)">
    <line
       id="line19088"
       y2="-837.81299"
       x2="1386.95"
       y1="-761.26703"
       x1="1386.95"
       style="fill:none;fill-opacity:0;stroke:#000000;stroke-width:5.5999999" />
    <polygon
       id="polygon19090"
       points="1386.95,-845.313 1391.95,-835.313 1386.95,-837.813 1381.95,-835.313 "
       style="fill:#000000" />
    <polygon
       id="polygon19092"
       points="1386.95,-845.313 1391.95,-835.313 1386.95,-837.813 1381.95,-835.313 "
       style="fill:none;fill-opacity:0;stroke:#000000;stroke-width:5.5999999" />
  </g>
  <g
     id="g19094"
     transform="translate(-153.21,34.990196)">
    <line
       id="line19096"
       y2="-1017.04"
       x2="1386.95"
       y1="-961.69098"
       x1="1386.95"
       style="fill:none;fill-opacity:0;stroke:#000000;stroke-width:5.5999999" />
    <polygon
       id="polygon19098"
       points="1386.95,-1024.54 1391.95,-1014.54 1386.95,-1017.04 1381.95,-1014.54 "
       style="fill:#000000" />
    <polygon
       id="polygon19100"
       points="1386.95,-1024.54 1391.95,-1014.54 1386.95,-1017.04 1381.95,-1014.54 "
       style="fill:none;fill-opacity:0;stroke:#000000;stroke-width:5.5999999" />
  </g>
  <g
     id="g19102"
     transform="translate(-153.21,34.990196)">
    <line
       id="line19104"
       y2="-1220.47"
       x2="1386.95"
       y1="-1140.92"
       x1="1386.95"
       style="fill:none;fill-opacity:0;stroke:#000000;stroke-width:5.5999999" />
    <polygon
       id="polygon19106"
       points="1386.95,-1227.97 1391.95,-1217.97 1386.95,-1220.47 1381.95,-1217.97 "
       style="fill:#000000" />
    <polygon
       id="polygon19108"
       points="1386.95,-1227.97 1391.95,-1217.97 1386.95,-1220.47 1381.95,-1217.97 "
       style="fill:none;fill-opacity:0;stroke:#000000;stroke-width:5.5999999" />
  </g>
  <g
     id="g19110"
     transform="translate(-153.21,34.990196)">
    <line
       id="line19112"
       y2="-561.93701"
       x2="820.44598"
       y1="-561.60101"
       x1="522.81"
       style="fill:none;fill-opacity:0;stroke:#000000;stroke-width:5.5999999" />
    <polygon
       id="polygon19114"
       points="827.946,-561.946 817.952,-556.934 820.446,-561.937 817.94,-566.934 "
       style="fill:#000000" />
    <polygon
       id="polygon19116"
       points="827.946,-561.946 817.952,-556.934 820.446,-561.937 817.94,-566.934 "
       style="fill:none;fill-opacity:0;stroke:#000000;stroke-width:5.5999999" />
  </g>
  <line
     id="line19118"
     y2="-523.8938"
     x2="370.56802"
     y1="-554.6438"
     x1="370.56699"
     style="fill:none;fill-opacity:0;stroke:#000000;stroke-width:5.5999999" />
  <line
     id="line19120"
     y2="-1261.9897"
     x2="642.38898"
     y1="-1262.0298"
     x1="547.367"
     style="fill:none;fill-opacity:0;stroke:#000000;stroke-width:5.5999999" />
  <g
     id="g19122"
     transform="translate(-153.21,34.990196)">
    <line
       id="line19124"
       y2="-1385.58"
       x2="792.63898"
       y1="-1298.34"
       x1="792.63898"
       style="fill:none;fill-opacity:0;stroke:#000000;stroke-width:5.5999999" />
    <polygon
       id="polygon19126"
       points="792.639,-1393.08 797.639,-1383.08 792.639,-1385.58 787.639,-1383.08 "
       style="fill:#000000" />
    <polygon
       id="polygon19128"
       points="792.639,-1393.08 797.639,-1383.08 792.639,-1385.58 787.639,-1383.08 "
       style="fill:none;fill-opacity:0;stroke:#000000;stroke-width:5.5999999" />
  </g>
  <text
     id="text19130"
     y="-1378.5698"
     x="559.87897"
     style="font-style:normal;font-weight:normal;font-size:33.86669922px;font-family:Arial;text-anchor:start;fill:#000000"
     font-size="33.8667">
    <tspan
       id="tspan19132"
       y="-1378.5698"
       x="559.87897">Return error</tspan>
  </text>
  <text
     id="text19134"
     y="-1273.6097"
     x="556.32098"
     style="font-style:normal;font-weight:normal;font-size:33.86669922px;font-family:Arial;text-anchor:start;fill:#000000"
     font-size="33.8667">
    <tspan
       id="tspan19136"
       y="-1273.6097"
       x="556.32098">No</tspan>
  </text>
  <text
     id="text19138"
     y="-1123.3497"
     x="383.50101"
     style="font-style:normal;font-weight:normal;font-size:33.86669922px;font-family:Arial;text-anchor:start;fill:#000000"
     font-size="33.8667">
    <tspan
       id="tspan19140"
       y="-1123.3497"
       x="383.50101">Yes</tspan>
  </text>
  <text
     id="text19142"
     y="-676.12585"
     x="590.52997"
     style="font-style:normal;font-weight:normal;font-size:33.86669922px;font-family:Arial;text-anchor:start;fill:#000000"
     font-size="33.8667">
    <tspan
       id="tspan19144"
       y="-676.12585"
       x="590.52997">Yes</tspan>
  </text>
  <text
     id="text19146"
     y="-533.60681"
     x="421.509"
     style="font-style:normal;font-weight:normal;font-size:33.86669922px;font-family:Arial;text-anchor:start;fill:#000000"
     font-size="33.8667">
    <tspan
       id="tspan19148"
       y="-533.60681"
       x="421.509">No</tspan>
  </text>
  <line
     id="line19150"
     y2="-963.72583"
     x2="46.728992"
     y1="-963.30585"
     x1="1460.8101"
     style="fill:none;fill-opacity:0;stroke:#000000;stroke-width:4" />
  <text
     id="text19152"
     y="-977.24982"
     x="651.31696"
     style="font-style:normal;font-weight:normal;font-size:33.86669922px;font-family:Arial;text-anchor:start;fill:#000000"
     font-size="33.8667">
    <tspan
       id="tspan19154"
       y="-977.24982"
       x="651.31696">Virtual machine</tspan>
  </text>
  <text
     id="text19156"
     y="-926.54584"
     x="686.31897"
     style="font-style:normal;font-weight:normal;font-size:33.86669922px;font-family:Arial;text-anchor:start;fill:#000000"
     font-size="33.8667">
    <tspan
       id="tspan19158"
       y="-926.54584"
       x="686.31897">Hypervisor</tspan>
  </text>
  <g
     id="g19218"
     transform="translate(-153.21,34.990196)">
    <rect
       id="rect19220"
       height="104.519"
       width="278.53699"
       y="-614.39203"
       x="1247.6801"
       style="fill:#ffc0cb" />
    <path
       inkscape:connector-curvature="0"
       id="path19222"
       d="m 1247.68,-614.392 a 40,40 0 0 0 -40,40 l 40,0 z"
       style="fill:#ffc0cb" />
    <path
       inkscape:connector-curvature="0"
       id="path19224"
       d="m 1566.22,-574.392 a 40,40 0 0 0 -40,-40 l 0,40 z"
       style="fill:#ffc0cb" />
    <rect
       id="rect19226"
       height="24.5193"
       width="358.53699"
       y="-574.39203"
       x="1207.6801"
       style="fill:#ffc0cb" />
    <path
       inkscape:connector-curvature="0"
       id="path19228"
       d="m 1207.68,-549.873 a 40,40 0 0 0 40,40 l 0,-40 z"
       style="fill:#ffc0cb" />
    <path
       inkscape:connector-curvature="0"
       id="path19230"
       d="m 1526.22,-509.873 a 40,40 0 0 0 40,-40 l -40,0 z"
       style="fill:#ffc0cb" />
    <line
       id="line19232"
       y2="-614.39203"
       x2="1526.22"
       y1="-614.39203"
       x1="1247.6801"
       style="fill:none;fill-opacity:0;stroke:#f04361;stroke-width:5.5999999" />
    <line
       id="line19234"
       y2="-509.87299"
       x2="1526.22"
       y1="-509.87299"
       x1="1247.6801"
       style="fill:none;fill-opacity:0;stroke:#f04361;stroke-width:5.5999999" />
    <path
       inkscape:connector-curvature="0"
       id="path19236"
       d="m 1247.68,-614.392 a 40,40 0 0 0 -40,40"
       style="fill:none;fill-opacity:0;stroke:#f04361;stroke-width:5.5999999" />
    <path
       inkscape:connector-curvature="0"
       id="path19238"
       d="m 1566.22,-574.392 a 40,40 0 0 0 -40,-40"
       style="fill:none;fill-opacity:0;stroke:#f04361;stroke-width:5.5999999" />
    <line
       id="line19240"
       y2="-549.87299"
       x2="1207.6801"
       y1="-574.39203"
       x1="1207.6801"
       style="fill:none;fill-opacity:0;stroke:#f04361;stroke-width:5.5999999" />
    <line
       id="line19242"
       y2="-549.87299"
       x2="1566.22"
       y1="-574.39203"
       x1="1566.22"
       style="fill:none;fill-opacity:0;stroke:#f04361;stroke-width:5.5999999" />
    <path
       inkscape:connector-curvature="0"
       id="path19244"
       d="m 1207.68,-549.873 a 40,40 0 0 0 40,40"
       style="fill:none;fill-opacity:0;stroke:#f04361;stroke-width:5.5999999" />
    <path
       inkscape:connector-curvature="0"
       id="path19246"
       d="m 1526.22,-509.873 a 40,40 0 0 0 40,-40"
       style="fill:none;fill-opacity:0;stroke:#f04361;stroke-width:5.5999999" />
    <text
       id="text19248"
       y="-573.81598"
       x="1386.95"
       style="font-style:normal;font-weight:normal;font-size:33.86669922px;font-family:Arial;text-anchor:middle;fill:#000000"
       font-size="33.8667">
      <tspan
         id="tspan19250"
         y="-573.81598"
         x="1386.95">Issue request to</tspan>
      <tspan
         id="tspan19252"
         y="-531.48199"
         x="1386.95">device</tspan>
    </text>
  </g>
  <g
     id="g19254"
     transform="translate(-153.21,34.990196)">
    <line
       id="line19256"
       y2="-637.388"
       x2="1386.95"
       y1="-617.18799"
       x1="1386.95"
       style="fill:none;fill-opacity:0;stroke:#000000;stroke-width:5.5999999" />
    <polygon
       id="polygon19258"
       points="1386.95,-644.888 1391.95,-634.888 1386.95,-637.388 1381.95,-634.888 "
       style="fill:#000000" />
    <polygon
       id="polygon19260"
       points="1386.95,-644.888 1391.95,-634.888 1386.95,-637.388 1381.95,-634.888 "
       style="fill:none;fill-opacity:0;stroke:#000000;stroke-width:5.5999999" />
  </g>
</svg>
